<?xml version="1.0" encoding="utf-8"?>
<!-- Generator: Adobe Illustrator 25.0.0, SVG Export Plug-In . SVG Version: 6.00 Build 0)  -->
<svg version="1.1" id="Layer_1" xmlns="http://www.w3.org/2000/svg" xmlns:xlink="http://www.w3.org/1999/xlink" x="0px" y="0px"
	 viewBox="0 0 315.2 304" style="enable-background:new 0 0 315.2 304;" xml:space="preserve">
<style type="text/css">
	.st0{opacity:0.15;}
	.st1{fill-rule:evenodd;clip-rule:evenodd;fill:#DC3545;}
</style>
<g class="st0">
	<g id="i-like-food">
		<path class="st1" d="M69.9,43.2c0.2,0.6,0.4,1.3,0.5,2h-3.7l1.2,2.3l0.5,0.9l-0.2,0.1v6.7c2.2,1.7,2.7,4.8,1,7
			c-0.8,1-1.9,1.7-3.2,1.9v0.1c-0.9,3.5-4.1,6-7.8,6h-20c-3.6,0-6.8-2.5-7.7-6v-0.1c-2.7-0.4-4.6-3-4.2-5.7c0.2-1.3,0.9-2.5,1.9-3.2
			v-6.8l-0.8-1.6L27,45.9l0.9-0.4l0.6-0.3h-2.8C28.3,32.8,40.6,25,53,27.7C61,29.5,67.4,35.4,69.9,43.2z M33.1,45.2
			c-0.2,0-0.3,0-0.4,0.1l-3.1,1.6l0.9,1.8l1.3-0.7c0.8-0.4,1.8-0.4,2.7,0l2.2,1.1c0.3,0.1,0.6,0.1,0.9,0l2.2-1.1
			c0.8-0.4,1.8-0.4,2.7,0l2.2,1.1c0.3,0.1,0.6,0.1,0.9,0l2.2-1.1c0.8-0.4,1.8-0.4,2.7,0l2.2,1.1c0.3,0.1,0.6,0.1,0.9,0l2.9-1.3
			c0.8-0.3,1.7-0.3,2.4,0l2.9,1.3c0.3,0.1,0.6,0.1,0.8,0l3.1-1.5l-0.9-1.8l-1.4,0.7c-0.8,0.4-1.7,0.4-2.6,0.1L58,45.3
			c-0.1-0.1-0.3-0.1-0.4-0.1l0,0c-0.1,0-0.3,0-0.4,0.1l-2.8,1.2c-0.8,0.4-1.8,0.3-2.6-0.1l-2.3-1.2c-0.1-0.1-0.3-0.1-0.4-0.1l0,0
			c-0.2,0-0.3,0-0.4,0.1l-2.2,1.1c-0.8,0.4-1.8,0.4-2.7,0l-2.2-1.1c-0.1-0.1-0.3-0.1-0.5-0.1l0,0c-0.2,0-0.3,0-0.4,0.1l-2.2,1.1
			c-0.8,0.4-1.8,0.4-2.7,0l-2.2-1.1C33.4,45.2,33.3,45.2,33.1,45.2L33.1,45.2L33.1,45.2z M33.1,43.2h-4.9
			c3.9-11,15.9-16.7,26.8-12.8c6,2.1,10.7,6.8,12.8,12.8h-2.1l-0.1-0.1l-0.3,0.1H33.1L33.1,43.2z M63.4,50.9l1.4-0.7h1.3v2h-36V51
			l0.3-0.2l1.4-0.7h2.6l1.4,0.7c0.8,0.4,1.8,0.4,2.7,0l1.4-0.7h2.6l1.4,0.7c0.8,0.4,1.8,0.4,2.7,0l1.4-0.7h2.6l1.4,0.7
			c0.8,0.4,1.7,0.4,2.6,0.1l1.7-0.7h3.2l1.7,0.7C61.7,51.3,62.6,51.3,63.4,50.9z M31.7,54.2l16.4,4.9l16.4-4.9H31.7z M31.1,56.2h0.3
			l16.7,5l16.7-5h0.3c1.7,0,3,1.3,3,3s-1.3,3-3,3h-34c-1.7,0-3-1.3-3-3C28.1,57.5,29.4,56.2,31.1,56.2z M32.4,64.2
			c0.8,2.4,3.1,4,5.7,4h20c2.5,0,4.8-1.6,5.7-4H32.4z"/>
		<path id="path6_fill-copy" class="st1" d="M287.9,43.2c0.2,0.6,0.4,1.3,0.5,2h-3.7l1.2,2.3l0.5,0.9l-0.2,0.1v6.7
			c2.2,1.7,2.7,4.8,1,7c-0.8,1-1.9,1.7-3.2,1.9v0.1c-0.9,3.5-4.1,6-7.8,6h-20c-3.6,0-6.8-2.5-7.7-6v-0.1c-2.7-0.4-4.6-3-4.2-5.7
			c0.2-1.3,0.9-2.5,1.9-3.2v-6.8l-0.8-1.6l-0.4-0.9l0.9-0.4l0.6-0.3h-2.9c2.8-12.4,15.1-20.2,27.5-17.4
			C279,29.5,285.4,35.4,287.9,43.2z M251.1,45.2c-0.2,0-0.3,0-0.4,0.1l-3.1,1.6l0.9,1.8l1.3-0.7c0.8-0.4,1.8-0.4,2.7,0l2.2,1.1
			c0.3,0.1,0.6,0.1,0.9,0l2.2-1.1c0.8-0.4,1.8-0.4,2.7,0l2.2,1.1c0.3,0.1,0.6,0.1,0.9,0l2.2-1.1c0.8-0.4,1.8-0.4,2.7,0l2.2,1.1
			c0.3,0.1,0.6,0.1,0.9,0l2.9-1.3c0.8-0.3,1.7-0.3,2.4,0l2.9,1.3c0.3,0.1,0.6,0.1,0.9,0l3.1-1.5l-0.9-1.8l-1.4,0.7
			c-0.8,0.4-1.7,0.4-2.6,0.1l-2.8-1.2c-0.1-0.1-0.3-0.1-0.4-0.1l0,0c-0.1,0-0.3,0-0.4,0.1l-2.8,1.2c-0.8,0.4-1.8,0.3-2.6-0.1
			l-2.3-1.2c-0.1-0.1-0.3-0.1-0.5-0.1l0,0c-0.2,0-0.3,0-0.4,0.1l-2.2,1.1c-0.8,0.4-1.8,0.4-2.7,0l-2.2-1.1c-0.1-0.1-0.3-0.1-0.4-0.1
			l0,0c-0.2,0-0.3,0-0.4,0.1l-2.2,1.1c-0.8,0.4-1.8,0.4-2.7,0l-2.2-1.1C251.4,45.2,251.3,45.2,251.1,45.2L251.1,45.2L251.1,45.2z
			 M251.1,43.2h-4.9c3.9-10.9,15.9-16.7,26.8-12.8c6,2.1,10.7,6.8,12.8,12.8h-2.1l-0.1-0.1l-0.3,0.1H251.1L251.1,43.2z M281.4,50.9
			l1.4-0.7h1.3v2h-36V51l0.3-0.2l1.4-0.7h2.6l1.4,0.7c0.8,0.4,1.8,0.4,2.7,0l1.4-0.7h2.6l1.4,0.7c0.8,0.4,1.8,0.4,2.7,0l1.4-0.7h2.6
			l1.4,0.7c0.8,0.4,1.7,0.4,2.6,0.1l1.7-0.7h3.2l1.7,0.7C279.7,51.3,280.6,51.3,281.4,50.9L281.4,50.9z M249.7,54.2l16.4,4.9
			l16.4-4.9H249.7z M249.1,56.2h0.3l16.7,5l16.7-5h0.3c1.7,0,3,1.3,3,3s-1.3,3-3,3h-34c-1.7,0-3-1.3-3-3
			C246.1,57.5,247.4,56.2,249.1,56.2z M250.4,64.2c0.8,2.4,3.1,4,5.6,4h20c2.5,0,4.8-1.6,5.7-4H250.4z"/>
		<path class="st1" d="M186.8,42.5c-1.3-3.6-4.7-6-8.5-6h-42c-3.8,0-7.2,2.4-8.5,6c-3.3,0.3-5.8,3.2-5.5,6.5
			c0.2,2.9,2.6,5.2,5.5,5.5c-1.7,4.7,0.8,9.8,5.4,11.5c1,0.3,2,0.5,3,0.5h42c5,0,9-4,9-9c0-1-0.2-2.1-0.5-3c3.3-0.3,5.8-3.2,5.5-6.5
			C192.1,45.1,189.8,42.8,186.8,42.5z M178.3,38.5h-42c-2.7,0-5.2,1.6-6.3,4h54.7C183.5,40,181.1,38.5,178.3,38.5z M169,64.5
			c2.1-1.7,3.3-4.3,3.3-7h-2c0,3.9-3.1,7-7,7H159c2.1-1.7,3.3-4.3,3.3-7h-2c0,3.9-3.1,7-7,7H149c2.1-1.7,3.3-4.3,3.3-7h-2
			c0,3.9-3.1,7-7,7h-7c-3.9,0-7-3.1-7-7s3.1-7,7-7h42c3.9,0,7,3.1,7,7s-3.1,7-7,7H169z M136.3,48.5c-3,0-5.8,1.5-7.5,4h-0.5
			c-2.2,0-4-1.8-4-4s1.8-4,4-4h58c2.2,0,4,1.8,4,4s-1.8,4-4,4h-0.5c-1.7-2.5-4.5-4-7.5-4H136.3z"/>
		<path class="st1" d="M47,160.3c4.4,0,8-3.6,8-8c0-4.4-3.6-8-8-8s-8,3.6-8,8C39,156.7,42.6,160.3,47,160.3z M53,152.3
			c0,3.3-2.7,6-6,6s-6-2.7-6-6s2.7-6,6-6C50.4,146.3,53,149,53,152.3z M50,123.3v-2h8v-6H48c-2.2,0-4,1.8-4,4v10H30l-1.3,4l-0.7,2
			h2.2l3.8,40h26l3.8-40H66l-0.7-2l-1.3-4H50V123.3z M46,119.3v10h2v-10h8v-2h-8C46.9,117.3,46,118.2,46,119.3z M48,131.3h14.6
			l0.7,2H30.8l0.7-2H48z M61.8,135.3H32.2l3.6,38h22.4L61.8,135.3z"/>
		<path class="st1" d="M156.3,119.2h-6v4h-6v4h-6v14h-3l0.2,2l3.8,32h36l3.8-32l0.2-2h-3v-14h-6v-4h-6v-4
			C164.3,119.2,156.3,119.2,156.3,119.2z M174.3,141.2v-12h-4v4h3v8H174.3z M171.3,141.2v-6h-4v6H171.3z M165.3,147.2v-16h-4v19.2
			C162.9,149.7,164.3,148.6,165.3,147.2z M159.3,151v-23.8h-4V151C156.7,151.3,158,151.3,159.3,151z M153.3,150.4v-19.2h-4v16
			C150.4,148.6,151.8,149.7,153.3,150.4z M147.3,141.2v-6h-4v6H147.3z M141.3,141.2v-8h3v-4h-4v12H141.3z M168.3,129.2v-4h-4v4h3v4
			h1V129.2z M162.3,129.2v-8h-4v4h3v4H162.3z M156.3,125.2v-4h-4v8h1v-4H156.3z M150.3,129.2v-4h-4v8h1v-4H150.3z M157.3,153.2
			c5.9,0,10.9-4.2,11.8-10h7.9l-3.5,30h-32.4l-3.5-30h7.9C146.5,149,151.5,153.2,157.3,153.2z"/>
		<path class="st1" d="M267.7,135.8v2h-4v-2H267.7z M271.7,135.8h-2v2h2V135.8z M251.7,135.8L251.7,135.8c-2.7,0.7-4.5,3.3-3.9,6
			c0.4,1.8,1.6,3.2,3.3,3.8l0.1,0.2l1.1,4.5c0.2,0.9,1,1.5,1.9,1.5l0,0l7,24.5c0.2,0.9,1,1.4,1.9,1.4h5c0.9,0,1.7-0.6,1.9-1.4
			l7-24.5c0.9,0,1.7-0.6,2-1.5l1.1-4.5l0.1-0.2c2.6-0.9,4.1-3.7,3.2-6.3c-0.6-1.7-2-3-3.8-3.3v-0.1c0-7.7-6.3-14-14-14
			C258,121.8,251.7,128.1,251.7,135.8z M255.7,135.8h6v2h-9c-1.7,0-3,1.3-3,3s1.3,3,3,3h26c1.7,0,3-1.3,3-3s-1.3-3-3-3h-3v-2h2
			c0-6.6-5.4-12-12-12s-12,5.4-12,12H255.7z M254.3,149.8l-1-4h24.9l-1,4H254.3z M263.3,175.8l-6.9-24h18.7l-6.9,24H263.3z
			 M161.4,274.8c12.2,0,22-9.8,22-22s-9.8-22-22-22s-22,9.8-22,22S149.3,274.8,161.4,274.8z M185.4,252.8c0,13.3-10.7,24-24,24
			s-24-10.7-24-24l0,0c0-13.3,10.7-24,24-24S185.4,239.5,185.4,252.8z M157.1,270.5l2-0.9c1.5-0.6,3.2-0.6,4.7,0l2,0.9
			c0.9,0.4,2,0,2.5-0.8l1.1-1.9c0.8-1.4,2.2-2.4,3.8-2.8l2.1-0.5c1-0.2,1.6-1.1,1.5-2.1l-0.2-2.2c-0.1-1.6,0.4-3.2,1.4-4.5l1.4-1.7
			c0.7-0.8,0.7-1.9,0-2.6l-1.4-1.7c-1.1-1.2-1.6-2.8-1.4-4.5l0.2-2.2c0.1-1-0.6-1.9-1.6-2.1l-2.1-0.5c-1.6-0.4-3-1.4-3.8-2.8
			l-1.1-1.9c-0.5-0.9-1.6-1.2-2.5-0.8l-2,0.9c-1.5,0.6-3.2,0.6-4.7,0l-2-0.9c-0.9-0.4-2,0-2.5,0.8l-1.1,1.9
			c-0.8,1.4-2.2,2.4-3.8,2.8l-2.1,0.5c-1,0.2-1.6,1.1-1.5,2.1l0.2,2.2c0.1,1.6-0.4,3.2-1.4,4.5l-1.4,1.7c-0.7,0.8-0.7,1.9,0,2.6
			l1.4,1.7c1.1,1.2,1.6,2.8,1.4,4.5l-0.2,2.2c-0.1,1,0.6,1.9,1.6,2.1l2.1,0.5c1.6,0.4,3,1.4,3.8,2.8l1.1,1.9
			C155.1,270.6,156.2,270.9,157.1,270.5L157.1,270.5z M159.9,271.5c1-0.4,2.1-0.4,3.1,0l2,0.9c1.8,0.8,4,0.1,5-1.6l1.1-1.9
			c0.6-0.9,1.5-1.6,2.5-1.8l2.1-0.5c1.9-0.4,3.3-2.3,3.1-4.2l-0.2-2.2c-0.1-1.1,0.3-2.2,1-3l1.4-1.7c1.3-1.5,1.3-3.7,0-5.2l-1.4-1.7
			c-0.7-0.8-1.1-1.9-1-3l0.2-2.2c0.2-2-1.1-3.8-3.1-4.2l-2.1-0.5c-1.1-0.2-2-0.9-2.5-1.8L170,235c-1-1.7-3.2-2.4-5-1.6l-2,0.9
			c-1,0.4-2.1,0.4-3.1,0l-2-0.9c-1.8-0.8-4-0.1-5,1.6l-1.1,1.9c-0.6,0.9-1.5,1.6-2.5,1.8l-2.1,0.5c-1.9,0.4-3.3,2.3-3.1,4.2l0.2,2.2
			c0.1,1.1-0.3,2.2-1,3l-1.4,1.7c-1.3,1.5-1.3,3.7,0,5.2l1.4,1.7c0.7,0.8,1.1,1.9,1,3l-0.4,2c-0.2,2,1.1,3.8,3.1,4.2l2.1,0.5
			c1.1,0.2,2,0.9,2.5,1.8l1.1,1.9c1,1.7,3.2,2.4,5,1.6L159.9,271.5z M163.4,239.8c0-0.6,0.4-1,1-1s1,0.4,1,1s-0.4,1-1,1
			S163.4,240.3,163.4,239.8z M169.4,241.8c0-0.6,0.4-1,1-1s1,0.4,1,1s-0.4,1-1,1S169.4,242.3,169.4,241.8z M158.4,242.8
			c0-0.6,0.4-1,1-1s1,0.4,1,1s-0.4,1-1,1S158.4,243.3,158.4,242.8z M152.4,242.8c0-0.6,0.4-1,1-1s1,0.4,1,1s-0.4,1-1,1
			S152.4,243.3,152.4,242.8z M155.4,237.8c0-0.6,0.4-1,1-1s1,0.4,1,1s-0.4,1-1,1S155.4,238.3,155.4,237.8z M147.4,245.8
			c0-0.6,0.4-1,1-1s1,0.4,1,1s-0.4,1-1,1S147.4,246.3,147.4,245.8z M150.4,251.8c0-0.6,0.4-1,1-1s1,0.4,1,1s-0.4,1-1,1
			S150.4,252.3,150.4,251.8z M150.4,257.8c0-0.6,0.4-1,1-1s1,0.4,1,1s-0.4,1-1,1S150.4,258.3,150.4,257.8z M154.4,264.8
			c0-0.6,0.4-1,1-1s1,0.4,1,1s-0.4,1-1,1S154.4,265.3,154.4,264.8z M159.4,262.8c0-0.6,0.4-1,1-1s1,0.4,1,1s-0.4,1-1,1
			S159.4,263.3,159.4,262.8z M164.4,266.8c0-0.6,0.4-1,1-1s1,0.4,1,1s-0.4,1-1,1S164.4,267.3,164.4,266.8z M168.4,260.8
			c0-0.6,0.4-1,1-1s1,0.4,1,1s-0.4,1-1,1S168.4,261.3,168.4,260.8z M174.4,256.8c0-0.6,0.4-1,1-1s1,0.4,1,1s-0.4,1-1,1
			S174.4,257.3,174.4,256.8z M170.4,253.8c0-0.6,0.4-1,1-1s1,0.4,1,1s-0.4,1-1,1S170.4,254.3,170.4,253.8z M174.4,250.8
			c0-0.6,0.4-1,1-1s1,0.4,1,1s-0.4,1-1,1S174.4,251.3,174.4,250.8z M169.4,246.8c0-0.6,0.4-1,1-1s1,0.4,1,1s-0.4,1-1,1
			S169.4,247.3,169.4,246.8z M145.4,252.8c0-0.6,0.4-1,1-1s1,0.4,1,1s-0.4,1-1,1S145.4,253.3,145.4,252.8z M161.4,257.8
			c2.8,0,5-2.2,5-5s-2.2-5-5-5s-5,2.2-5,5S158.7,257.8,161.4,257.8z M168.4,252.8c0,3.9-3.1,7-7,7s-7-3.1-7-7c0-3.9,3.1-7,7-7
			S168.4,248.9,168.4,252.8z M256.7,249.9c-0.6,0-1,0.4-1,1s0.4,1,1,1h2c0.6,0,1-0.4,1-1s-0.4-1-1-1H256.7z M275.7,258.9
			c0-0.6,0.4-1,1-1h2c0.6,0,1,0.4,1,1s-0.4,1-1,1h-2C276.2,259.9,275.7,259.4,275.7,258.9z M261.7,263.9c-0.6,0-1,0.4-1,1s0.4,1,1,1
			h2c0.6,0,1-0.4,1-1s-0.4-1-1-1H261.7z M236.7,264.9c-0.6,0-1,0.4-1,1s0.4,1,1,1h2c0.6,0,1-0.4,1-1s-0.4-1-1-1H236.7z M241.7,268.9
			c-0.6,0-1,0.4-1,1s0.4,1,1,1h2c0.6,0,1-0.4,1-1s-0.4-1-1-1H241.7z M250.7,268.9c0-0.6,0.4-1,1-1h2c0.6,0,1,0.4,1,1s-0.4,1-1,1h-2
			C251.2,269.9,250.7,269.4,250.7,268.9z M265.7,269.9c0-0.6,0.4-1,1-1h2c0.6,0,1,0.4,1,1s-0.4,1-1,1h-2
			C266.2,270.9,265.7,270.4,265.7,269.9z M277.7,267.9c-0.6,0-1,0.4-1,1s0.4,1,1,1h2c0.6,0,1-0.4,1-1s-0.4-1-1-1H277.7z
			 M266.7,253.9c0-0.6,0.4-1,1-1h2c0.6,0,1,0.4,1,1s-0.4,1-1,1h-2C267.2,254.9,266.7,254.4,266.7,253.9z M247.7,253.9
			c-0.6,0-1,0.4-1,1s0.4,1,1,1h2c0.6,0,1-0.4,1-1s-0.4-1-1-1H247.7z M253.7,258.9c0-0.6,0.4-1,1-1h2c0.6,0,1,0.4,1,1s-0.4,1-1,1h-2
			C254.2,259.9,253.7,259.4,253.7,258.9z M228.7,273.9c0-0.5,0-0.9,0-1.4c-2.5-1.1-3.7-4-2.6-6.6c0.2-0.5,0.5-1,0.9-1.4
			c-0.9-2,0-4.2,1.9-5.2c-0.8-2.6,0.7-5.4,3.4-6.2l0,0c0.4-0.5,0.9-0.9,1.5-1.1c0.5-2.7,3.1-4.5,5.8-4.1c0.7,0.1,1.4,0.4,2,0.8
			c5.3-3.8,11.6-5.9,18.2-5.9c6.8,0,13.1,2.2,18.2,5.9c2.3-1.6,5.4-1,7,1.3c0.4,0.6,0.7,1.3,0.8,2c0.6,0.2,1.1,0.6,1.5,1.1
			c2.7,0.8,4.2,3.5,3.4,6.2l0,0c1.9,1,2.7,3.2,1.9,5.2c1.9,2,1.8,5.2-0.2,7c-0.4,0.4-0.9,0.7-1.5,1c0,0.5,0,0.9,0,1.4v1h-62v-1
			H228.7z M229.6,266.7c-0.3,1.2-0.5,2.4-0.6,3.6c-1.3-1-1.6-2.9-0.6-4.2l0,0C228.7,266.4,229.1,266.6,229.6,266.7L229.6,266.7z
			 M231.1,262.1c-0.4,0.9-0.7,1.8-1,2.7c-1-0.4-1.6-1.5-1.3-2.5c0.2-0.5,0.6-0.9,1.1-1.2C230.2,261.5,230.6,261.8,231.1,262.1
			L231.1,262.1z M233.4,257.6c-0.5,0.9-1,1.8-1.5,2.7c-1.3-1-1.5-2.9-0.5-4.2c0.1-0.2,0.3-0.3,0.4-0.5
			C232,256.4,232.6,257.2,233.4,257.6L233.4,257.6z M234.5,255.9c0.4-0.5,0.7-1,1.1-1.5c-0.3-0.5-0.9-0.7-1.4-0.4s-0.7,0.9-0.4,1.4
			C234,255.6,234.2,255.8,234.5,255.9L234.5,255.9z M239.9,250.1c-1,0.9-2,1.8-2.9,2.8c-0.3-0.3-0.7-0.6-1.1-0.8
			c0.4-1.6,2.1-2.5,3.7-2.1C239.6,250,239.8,250.1,239.9,250.1L239.9,250.1z M282.5,252.9c-0.9-1-1.9-1.9-2.9-2.8
			c1.5-0.6,3.3,0.1,3.9,1.7c0,0.1,0.1,0.2,0.1,0.3C283.2,252.3,282.8,252.5,282.5,252.9L282.5,252.9z M283.9,254.4
			c0.4,0.5,0.8,1,1.1,1.4c0.5-0.1,0.9-0.7,0.8-1.2s-0.7-0.9-1.2-0.8C284.2,254,284,254.2,283.9,254.4z M287.6,260.2
			c-0.5-0.9-1-1.8-1.5-2.7c0.8-0.4,1.4-1.1,1.6-2c1.3,1.1,1.4,3,0.4,4.2C287.9,260,287.8,260.1,287.6,260.2z M289.4,264.8
			c-0.3-0.9-0.6-1.8-1-2.7c0.4-0.3,0.8-0.6,1.2-1c1,0.5,1.4,1.7,1,2.7C290.3,264.2,289.9,264.6,289.4,264.8z M290.5,270.3
			c-0.1-1.2-0.4-2.4-0.6-3.6c0.5-0.1,0.9-0.4,1.2-0.6C292.1,267.4,291.9,269.3,290.5,270.3C290.6,270.3,290.6,270.3,290.5,270.3
			L290.5,270.3z M288.7,272.9c-0.5-16-13.9-28.6-29.9-28.1c-15.3,0.5-27.6,12.8-28.1,28.1H288.7L288.7,272.9z"/>
		<path class="st1" d="M52.3,248.8c-0.6,0-1,0.4-1,1s0.4,1,1,1h2c0.6,0,1-0.4,1-1s-0.4-1-1-1H52.3z M71.3,257.8c0-0.6,0.4-1,1-1h2
			c0.6,0,1,0.4,1,1s-0.4,1-1,1h-2C71.8,258.8,71.3,258.3,71.3,257.8z M57.3,262.8c-0.6,0-1,0.4-1,1s0.4,1,1,1h2c0.6,0,1-0.4,1-1
			s-0.4-1-1-1H57.3z M32.3,263.8c-0.6,0-1,0.4-1,1s0.4,1,1,1h2c0.6,0,1-0.4,1-1s-0.4-1-1-1H32.3z M37.3,267.8c-0.6,0-1,0.4-1,1
			s0.4,1,1,1h2c0.6,0,1-0.4,1-1s-0.4-1-1-1H37.3z M46.3,267.8c0-0.6,0.4-1,1-1h2c0.6,0,1,0.4,1,1s-0.4,1-1,1h-2
			C46.8,268.8,46.3,268.3,46.3,267.8z M61.3,268.8c0-0.6,0.4-1,1-1h2c0.6,0,1,0.4,1,1s-0.4,1-1,1h-2
			C61.8,269.8,61.3,269.3,61.3,268.8z M73.3,266.8c-0.6,0-1,0.4-1,1s0.4,1,1,1h2c0.6,0,1-0.4,1-1s-0.4-1-1-1H73.3z M62.3,252.8
			c0-0.6,0.4-1,1-1h2c0.6,0,1,0.4,1,1s-0.4,1-1,1h-2C62.8,253.8,62.3,253.3,62.3,252.8z M43.3,252.8c-0.6,0-1,0.4-1,1s0.4,1,1,1h2
			c0.6,0,1-0.4,1-1s-0.4-1-1-1H43.3z M49.3,257.8c0-0.6,0.4-1,1-1h2c0.6,0,1,0.4,1,1s-0.4,1-1,1h-2
			C49.8,258.8,49.3,258.3,49.3,257.8z M24.3,272.8c0-0.5,0-0.9,0-1.4c-2.5-1.1-3.7-4-2.6-6.6c0.2-0.5,0.5-1,0.9-1.4
			c-0.9-2,0-4.2,1.9-5.2c-0.8-2.6,0.7-5.4,3.4-6.2l0,0c0.4-0.5,0.9-0.9,1.5-1.1c0.5-2.7,3.1-4.5,5.8-4.1c0.7,0.1,1.4,0.4,2,0.8
			c5.3-3.8,11.6-5.9,18.2-5.9c6.8,0,13.1,2.2,18.2,5.9c2.3-1.6,5.4-1,7,1.3c0.4,0.6,0.7,1.3,0.8,2c0.6,0.2,1.1,0.6,1.5,1.1
			c2.7,0.8,4.2,3.5,3.4,6.2l0,0c1.9,1,2.7,3.2,1.9,5.2c1.9,2,1.8,5.2-0.2,7c-0.4,0.4-0.9,0.7-1.5,1c0,0.5,0,0.9,0,1.4v1h-62v-1H24.3
			z M25.2,265.6c-0.3,1.2-0.5,2.4-0.6,3.6c-1.3-1-1.6-2.9-0.6-4.2l0,0C24.3,265.3,24.7,265.5,25.2,265.6L25.2,265.6z M26.7,261
			c-0.4,0.9-0.7,1.8-1,2.7c-1-0.4-1.6-1.5-1.3-2.5c0.2-0.5,0.6-0.9,1.1-1.2C25.8,260.4,26.2,260.7,26.7,261L26.7,261z M29,256.5
			c-0.5,0.9-1,1.8-1.5,2.7c-1.3-1-1.5-2.9-0.5-4.2c0.1-0.2,0.3-0.3,0.4-0.5C27.6,255.3,28.2,256.1,29,256.5z M30.1,254.8
			c0.3-0.5,0.7-1,1.1-1.5c-0.3-0.5-0.9-0.7-1.4-0.4s-0.7,0.9-0.4,1.4C29.6,254.5,29.8,254.7,30.1,254.8L30.1,254.8z M35.5,249
			c-1,0.9-2,1.8-2.9,2.8c-0.3-0.3-0.7-0.6-1.1-0.8c0.4-1.6,2.1-2.5,3.7-2.1C35.2,248.9,35.4,249,35.5,249L35.5,249z M78.1,251.8
			c-0.9-1-1.9-1.9-2.9-2.8c1.5-0.6,3.3,0.1,3.9,1.7c0,0.1,0.1,0.2,0.1,0.3C78.8,251.2,78.4,251.4,78.1,251.8L78.1,251.8z
			 M79.5,253.3c0.4,0.5,0.8,1,1.1,1.4c0.5-0.1,0.9-0.7,0.8-1.2s-0.7-0.9-1.2-0.8C79.8,252.9,79.6,253.1,79.5,253.3z M83.2,259.1
			c-0.5-0.9-0.9-1.8-1.5-2.7c0.8-0.4,1.4-1.1,1.6-2c1.3,1.1,1.4,3,0.4,4.2C83.5,258.9,83.4,259,83.2,259.1z M85,263.7
			c-0.3-0.9-0.6-1.8-1-2.7c0.4-0.3,0.8-0.6,1.2-1c1,0.5,1.4,1.7,1,2.7C85.9,263.1,85.5,263.5,85,263.7z M86.1,269.2
			c-0.1-1.2-0.3-2.4-0.6-3.6c0.5-0.1,0.9-0.4,1.2-0.6C87.7,266.3,87.5,268.2,86.1,269.2C86.2,269.2,86.2,269.2,86.1,269.2
			L86.1,269.2z M84.3,271.8c-0.5-16-13.9-28.6-29.9-28.1c-15.3,0.5-27.6,12.8-28.1,28.1H84.3L84.3,271.8z"/>
	</g>
</g>
</svg>
